<?xml version="1.0" encoding="UTF-8"?>
<svg version="1.1" xmlns="http://www.w3.org/2000/svg" width="48" height="48">
<path d="M0 0 C0.99 0.66 1.98 1.32 3 2 C4.175625 2.33 5.35125 2.66 6.5625 3 C10 4 10 4 12 6 C12.125 8.625 12.125 8.625 12 11 C13.32 11.66 14.64 12.32 16 13 C16.25 20.625 16.25 20.625 14 24 C13.34 24 12.68 24 12 24 C12.061875 24.763125 12.12375 25.52625 12.1875 26.3125 C12 29 12 29 10.9375 30.6875 C8.15863586 32.56995635 5.23104173 33.17755302 2 34 C1.01 34.495 1.01 34.495 0 35 C-7.46666667 35.35555556 -7.46666667 35.35555556 -11 33 C-12.175625 32.67 -13.35125 32.34 -14.5625 32 C-18 31 -18 31 -20 29 C-20.125 26.375 -20.125 26.375 -20 24 C-21.32 23.34 -22.64 22.68 -24 22 C-24 19.03 -24 16.06 -24 13 C-22.68 12.34 -21.36 11.68 -20 11 C-20.061875 10.236875 -20.12375 9.47375 -20.1875 8.6875 C-20 6 -20 6 -18.9375 4.3125 C-16.15863586 2.43004365 -13.23104173 1.82244698 -10 1 C-6.87293041 -0.5635348 -3.42017557 -0.39958487 0 0 Z " fill="#575FC5" transform="translate(28,4)"/>
<path d="M0 0 C1.32 0 2.64 0 4 0 C4 1.32 4 2.64 4 4 C2.68 4 1.36 4 0 4 C0 2.68 0 1.36 0 0 Z " fill="#5A62C9" transform="translate(7,38)"/>
<path d="M0 0 C0.66 0 1.32 0 2 0 C2 0.66 2 1.32 2 2 C1.34 2 0.68 2 0 2 C0 1.34 0 0.68 0 0 Z " fill="#464FB2" transform="translate(4,42)"/>
</svg>
